<?xml version="1.0" encoding="UTF-8"?>
<svg id="Layer_1" data-name="Layer 1" xmlns="http://www.w3.org/2000/svg" viewBox="0 0 242.59 34.2">
  <defs>
    <style>
      .cls-1 {
        font-family: Interstate-Light, Interstate;
        font-size: 9.35px;
        font-weight: 300;
      }

      .cls-1, .cls-2 {
        fill: #fff;
        stroke: #fff;
        stroke-miterlimit: 10;
      }

      .cls-2 {
        stroke-width: .5px;
      }
    </style>
  </defs>
  <g>
    <path class="cls-2" d="M12.89,11.62H.7V2.4h26.81v8.01l-12.55,13.58h13.31v9.45H.25v-8.14l12.64-13.67Z"/>
    <path class="cls-2" d="M43.53,33.34c-7.47,0-13.09-4.14-13.09-11.92s6.07-12.46,13.63-12.46,12.64,4.45,12.64,11.47c0,1.71-.09,3.06-.18,3.42h-15.57c.53,1.61,2.46,2.16,4.28,2.16,2.43,0,4.27-.32,6.7-1.75l3.87,5.13c-1.48,1.58-5.17,3.96-12.28,3.96ZM44.16,15.67c-2.02,0-3.24,1.3-3.37,2.88h6.57c0-1.84-1.35-2.88-3.19-2.88Z"/>
    <path class="cls-2" d="M71.08,9.84v3.6c.94-2.65,3.37-4.09,5.89-4.09,1.62,0,2.25.5,2.25.5l-.63,10.44h-.45c-.49-.22-1.62-.67-3.01-.67-1.28,0-2.21.47-2.83,1.27-.68.89-.99,2.19-.99,3.72v8.55h-11.61V9.84h11.38Z"/>
    <path class="cls-2" d="M92.64,9.75v3.6c.94-2.65,3.37-4.09,5.89-4.09,1.62,0,2.25.5,2.25.5l-.63,10.44h-.45c-.49-.22-1.62-.67-3.01-.67-1.28,0-2.21.47-2.83,1.27-.68.89-.99,2.19-.99,3.72v8.55h-11.61V9.75h11.38Z"/>
    <path class="cls-2" d="M115.91,9.05c7.96,0,13.85,4.27,13.85,12.19s-5.89,12.19-13.85,12.19-13.85-4.32-13.85-12.19,5.89-12.19,13.85-12.19ZM118.88,21.29c0-2.38-1.08-3.96-2.97-3.96s-2.97,1.58-2.97,3.96c0,2.11,1.08,3.69,2.97,3.69s2.97-1.57,2.97-3.69Z"/>
    <path class="cls-2" d="M148.43,2.38l3.03,16.96,3.49-16.96h14.21l2.16,31.04h-11.34l-.35-18.17-3.25,18.17h-10.12l-3.51-17.95-.09,17.95h-11.52l2.25-31.04h15.02Z"/>
    <path class="cls-2" d="M181.03,33.95c-4.45,0-8.37-2.61-8.37-7.69s5.67-6.75,10.57-7.06l4.86-.31v-.27c0-.9-1.3-1.62-3.91-1.62s-5.58.76-7.65,1.8l-2.25-6.52c2.79-1.39,7.33-2.7,11.88-2.7,4.23,0,7.56.85,9.76,2.61,2.25,1.89,3.33,4.72,3.33,8.77v12.42h-10.98l-.22-1.93c-1.66,1.93-4.41,2.52-7.02,2.52ZM183.73,25.49c0,1.3,1.03,1.8,2.16,1.8s2.07-.63,2.29-.86v-2.92l-2.2.09c-1.08.04-2.25.54-2.25,1.89Z"/>
    <path class="cls-2" d="M202.17,10.11h13l2.11,5.08,2.2-5.08h13l-8.1,11.2,8.95,12.1h-12.96l-3.1-5.4-3.01,5.4h-13l8.91-12.1-8.01-11.2Z"/>
  </g>
  <text class="cls-1" transform="translate(233.83 8.45) scale(1.06 1)"><tspan x="0" y="0">©</tspan></text>
</svg>